<svg xmlns="http://www.w3.org/2000/svg" width="1400" height="420" viewBox="0 0 1400 420">
  <defs>
    <linearGradient id="bg4" x1="0%" y1="0%" x2="100%" y2="100%">
      <stop offset="0%" style="stop-color:#ea580c"/>
      <stop offset="100%" style="stop-color:#7c2d12"/>
    </linearGradient>
  </defs>
  <rect width="1400" height="420" fill="url(#bg4)"/>
  <circle cx="1150" cy="220" r="170" fill="rgba(255,255,255,0.04)"/>
  <circle cx="1000" cy="100" r="90" fill="rgba(255,255,255,0.04)"/>
  <rect x="80" y="120" width="500" height="8" rx="4" fill="rgba(255,255,255,0.9)"/>
  <rect x="80" y="150" width="420" height="8" rx="4" fill="rgba(255,255,255,0.9)"/>
  <rect x="80" y="190" width="470" height="5" rx="2" fill="rgba(255,255,255,0.4)"/>
  <rect x="80" y="205" width="390" height="5" rx="2" fill="rgba(255,255,255,0.4)"/>
  <rect x="80" y="250" width="190" height="45" rx="8" fill="#fbbf24"/>
  <text x="175" y="278" font-family="Arial,sans-serif" font-size="15" fill="#7c2d12" text-anchor="middle" font-weight="bold">Ekipmanları İncele</text>
  <!-- Fan/AC icon -->
  <g transform="translate(1060,120)" fill="rgba(255,255,255,0.12)">
    <circle cx="60" cy="60" r="55" fill="none" stroke="rgba(255,255,255,0.12)" stroke-width="10"/>
    <circle cx="60" cy="60" r="12"/>
    <path d="M60,10 Q80,35 60,60" stroke="rgba(255,255,255,0.12)" stroke-width="8" fill="none"/>
    <path d="M110,60 Q85,80 60,60" stroke="rgba(255,255,255,0.12)" stroke-width="8" fill="none"/>
    <path d="M60,110 Q40,85 60,60" stroke="rgba(255,255,255,0.12)" stroke-width="8" fill="none"/>
    <path d="M10,60 Q35,40 60,60" stroke="rgba(255,255,255,0.12)" stroke-width="8" fill="none"/>
  </g>
  <text x="80" y="370" font-family="Arial,sans-serif" font-size="12" fill="rgba(255,255,255,0.3)">Demo Görsel 4 - Gerçek görsel ile değiştirilecek</text>
</svg>