<svg xmlns="http://www.w3.org/2000/svg" width="1400" height="420" viewBox="0 0 1400 420">
  <defs>
    <linearGradient id="bg3" x1="0%" y1="0%" x2="100%" y2="100%">
      <stop offset="0%" style="stop-color:#059669"/>
      <stop offset="100%" style="stop-color:#064e3b"/>
    </linearGradient>
  </defs>
  <rect width="1400" height="420" fill="url(#bg3)"/>
  <circle cx="1100" cy="180" r="160" fill="rgba(255,255,255,0.04)"/>
  <circle cx="950" cy="320" r="80" fill="rgba(255,255,255,0.04)"/>
  <rect x="80" y="120" width="520" height="8" rx="4" fill="rgba(255,255,255,0.9)"/>
  <rect x="80" y="150" width="380" height="8" rx="4" fill="rgba(255,255,255,0.9)"/>
  <rect x="80" y="190" width="460" height="5" rx="2" fill="rgba(255,255,255,0.4)"/>
  <rect x="80" y="205" width="400" height="5" rx="2" fill="rgba(255,255,255,0.4)"/>
  <rect x="80" y="250" width="170" height="45" rx="8" fill="#fbbf24"/>
  <text x="165" y="278" font-family="Arial,sans-serif" font-size="15" fill="#064e3b" text-anchor="middle" font-weight="bold">B2B Başvuru Yap</text>
  <!-- Handshake icon -->
  <g transform="translate(1020,140)" fill="rgba(255,255,255,0.12)">
    <path d="M0,80 Q40,20 80,80 Q120,20 160,80" stroke="rgba(255,255,255,0.12)" stroke-width="12" fill="none"/>
    <circle cx="40" cy="100" r="20"/>
    <circle cx="120" cy="100" r="20"/>
  </g>
  <text x="80" y="370" font-family="Arial,sans-serif" font-size="12" fill="rgba(255,255,255,0.3)">Demo Görsel 3 - Gerçek görsel ile değiştirilecek</text>
</svg>